# xmcd
#
# Track frame offsets:
#	150
#	14422
#	30312
#	46781
#	62820
#	74113
#	87436
#	102218
#	121642
#	132515
#	148010
#	160166
#
# Disc length: 2295 seconds
# Revision: 0
# Processed by: cddbd v1.5.2PL0 Copyright (c) Steve Scherf et al.
# Submitted via: dBpowerAMP V12.0
#
DISCID=a208f50c
DTITLE=Various Artist - Down Home
DYEAR=2011
DGENRE=Bluegrass
TTITLE0=Josh Williams - Lonesome Feeling
TTITLE1=Josh Williams - Dream of Me
TTITLE2=Josh Williams - Cherokee Shuffle
TTITLE3=Josh Williams - Blue Water
TTITLE4=Josh Williams - Streets of Bakersfield
TTITLE5=Josh Williams - We'll Burn That Bridge
TTITLE6=Josh Williams with Tony Rice - Blue Railroad Train
TTITLE7=Josh Williams - Down Home
TTITLE8=Josh Williams - Stealin' Away
TTITLE9=Josh Williams - Kodak 1955
TTITLE10=Josh Williams - Polka On the Banjo
TTITLE11=Josh Williams - The Last Song
EXTD=
EXTT0=
EXTT1=
EXTT2=
EXTT3=
EXTT4=
EXTT5=
EXTT6=
EXTT7=
EXTT8=
EXTT9=
EXTT10=
EXTT11=
PLAYORDER=
